<svg id="Layer_1" data-name="Layer 1" xmlns="http://www.w3.org/2000/svg" viewBox="0 0 23.94 21.81"><defs><style>.cls-1{fill:#ffa700;}.cls-2{fill:#ffce00;}.cls-3{fill:#fff400;}</style></defs><path class="cls-1" d="M40.48,21.93A3,3,0,0,1,37.37,24a3,3,0,0,1-3.11-2.09,12.68,12.68,0,0,0-3.12.94h0l-2.5,1.2a.93.93,0,1,1-1.62.77l-1.44.69a5.9,5.9,0,0,0,.67,3.5A3.55,3.55,0,0,0,28,30.59l3-2.36a22,22,0,0,1,.42,2.32l.17,0a.94.94,0,0,1,.78.42.59.59,0,0,1,.37-.12.62.62,0,0,1,.62.51,18.08,18.08,0,0,0,9.89-8.58A14,14,0,0,0,40.48,21.93ZM29.62,24.8a.42.42,0,0,1-.41-.41.41.41,0,0,1,.41-.41.41.41,0,0,1,.41.41A.41.41,0,0,1,29.62,24.8Zm2.65,5.44a.41.41,0,0,1-.41-.41.41.41,0,0,1,.41-.41.41.41,0,0,1,.41.41A.42.42,0,0,1,32.27,30.24Z" transform="translate(-25.53 -21.93)"/><path class="cls-2" d="M49.14,25.45l-4.76-2.14-.29-.17a19,19,0,0,1-12.46,9.65,15.37,15.37,0,0,1-.93,5.71,18.23,18.23,0,0,0,3.06.25,18,18,0,0,0,6.3-1.13,1,1,0,0,1-.19-.57.93.93,0,0,1,.93-.94.91.91,0,0,1,.65.27.64.64,0,0,1,.52-.27.66.66,0,0,1,.57.35,17.75,17.75,0,0,0,1.69-1.07,1,1,0,0,1-.51-.83.93.93,0,0,1,.93-.93.91.91,0,0,1,.52.16c0-1.67,0-3.3-.1-4.75l1.75,1.53s1.26.72,2.11-1.05A5,5,0,0,0,49.14,25.45ZM39.08,37.3a.41.41,0,1,1,0-.81.41.41,0,1,1,0,.81Zm5.05-4.16a.41.41,0,0,1-.41-.41.41.41,0,0,1,.82,0A.41.41,0,0,1,44.13,33.14Z" transform="translate(-25.53 -21.93)"/><path class="cls-3" d="M33.76,39.63a19.22,19.22,0,0,1-3.41-.3,8.17,8.17,0,0,1-1.14,1.85,5,5,0,0,0,1.67,1.29.93.93,0,0,1,1.85.12.62.62,0,0,1,.74.8,16.55,16.55,0,0,0,4.54.32,10.29,10.29,0,0,0,5.64-1.63A19.28,19.28,0,0,0,45,36.81c0-.31.07-.62.09-.93A18.75,18.75,0,0,1,33.76,39.63Zm.05,2.44a.41.41,0,0,1-.58,0,.4.4,0,0,1,0-.57.41.41,0,0,1,.58,0A.42.42,0,0,1,33.81,42.07Z" transform="translate(-25.53 -21.93)"/></svg>